<?xml version="1.0" encoding="UTF-8"?><svg id="uuid-3a9d3e17-24cf-4cf7-b1ce-7f52640c5345" xmlns="http://www.w3.org/2000/svg" viewBox="0 0 60.06 60.06"><g id="uuid-89e23020-ecb2-46d1-b31a-cea829e8852e"><path d="M49.42,0H10.64C4.76,0,0,4.76,0,10.64v38.78c0,5.88,4.76,10.64,10.64,10.64h10.53L4.33,13.82c-.98-3.99.44-6.86,4.34-8.75,4.2-1.06,7.14.22,8.84,3.95l10.05,27.61c1.28-2.94,2.68-5.56,3.83-8.21,1.19-2.55,1.78-3.82,1.91-4.11,2-3.55,5.15-4.58,9.14-2.97,1.84.86,3.17,2.25,3.78,3.91.6,1.66.51,3.34-.28,5.04-.23.67-1.06,2.26-2.38,5.09,3.58,1.75,5.56,2.68,5.95,2.77.92.25,1.46-.18,1.58-.81.44-.74.35-1.3-.4-1.74l-2.12-.99,2.31-4.96,2.12.99c3.65,1.96,4.65,5.01,3.15,8.96-2.13,3.83-5.1,5.03-9.02,3.63l-10.94-5.19,4.68-10.05c.2-.43.23-.67.15-.88-.22-.28-.47-.65-.9-.85-.53-.16-.88-.15-1.23-.14-.21.08-.38.26-.61.58l-11.35,24.36L12.32,10.91c-.61-.71-1.18-.98-1.76-.65-.73.26-1.1.87-.93,1.63l17.54,48.16h22.25c5.88,0,10.64-4.76,10.64-10.64V10.64c0-5.88-4.76-10.64-10.64-10.64Z" fill="#6ebfb1"/><path d="M10.56,10.26c.58-.33,1.15-.06,1.76.65l14.63,40.17,11.35-24.36c.23-.32.4-.5.61-.58.35,0,.7-.02,1.23.14.42.2.68.58.9.85.08.21.05.45-.15.88l-4.68,10.05,10.94,5.19c3.2,1.14,5.78.55,7.77-1.81.95-1.12,1.6-2.5,1.82-3.96.45-2.93-.76-5.24-3.73-6.84l-2.12-.99-2.31,4.96,2.12.99c.75.44.65,1.15.4,1.74s-.67,1.07-1.58.81c-.39-.1-2.37-1.02-5.95-2.77,1.32-2.83,2.15-4.43,2.38-5.09.79-1.7.88-3.38.28-5.04-.61-1.66-1.94-3.06-3.78-3.91-3.99-1.6-7.14-.57-9.14,2.97-.13.28-.72,1.56-1.91,4.11-1.15,2.65-2.54,5.27-3.83,8.21l-10.05-27.61c-1.71-3.73-4.64-5.01-8.84-3.95-3.9,1.89-5.32,4.76-4.34,8.75l16.84,46.23h6L9.63,11.89c-.16-.76.21-1.37.93-1.63Z" fill="#fff"/><circle cx="53.15" cy="22.54" r="2.49" fill="#99145b"/></g></svg>