<?xml version="1.0" encoding="UTF-8"?>
<svg id="LOGO" xmlns="http://www.w3.org/2000/svg" version="1.1" viewBox="0 0 382.7 170.1">
  <!-- Generator: Adobe Illustrator 29.8.2, SVG Export Plug-In . SVG Version: 2.1.1 Build 3)  -->
  <defs>
    <style>
      .st0 {
        fill: #fff;
      }
    </style>
  </defs>
  <path class="st0" d="M238.2,30.5c-14.3,0-25.9,11.6-25.9,25.9,0,14.3,11.6,25.9,25.9,25.9,14.3,0,25.9-11.6,25.9-25.9,0-14.3-11.6-25.9-25.9-25.9ZM238.2,69c-6.9,0-12.6-5.6-12.6-12.6,0-6.9,5.6-12.6,12.6-12.6,6.9,0,12.6,5.6,12.6,12.6s-5.6,12.6-12.6,12.6ZM310.6,39.3c-.2.2-.4.3-.6.5-3,2.2-6,4.4-8.9,6.7-.5.4-.8.3-1.2-.1-2.9-3-6.5-4.1-10.6-3.3-.7.1-1.4.4-2,.8-1.1.8-1.2,2.3-.1,3.2.5.4,1.1.8,1.8,1,3.3,1.2,6.6,2.3,9.8,3.5,2.6.9,5,2.2,7.2,3.8,8.2,6,7.3,18.6-1.5,23.9-3.8,2.3-8,3.3-12.3,3.3-7.5,0-14.1-2.4-19.5-7.8-.6-.6-1.1-1.2-1.6-1.8-.2-.2-.3-.5-.6-.8,3.6-2.6,7.1-5.1,10.8-7.7.2.3.3.5.5.7,2.8,4.2,8.5,6.3,13.3,4.8.7-.2,1.3-.5,1.8-1,1.1-.9,1.2-2.5.1-3.5-.5-.5-1.1-.9-1.7-1.1-3.3-1.2-6.6-2.4-9.9-3.6-3-1-5.7-2.4-8.1-4.5-6.6-5.5-6.5-16.6,1.5-21.9,2.9-1.9,6-3,9.3-3.4,5.3-.7,10.3,0,15.1,2.3,3,1.4,5.4,3.5,7.4,6.2ZM75.8,70.9c-3.4,5.3-8.6,9-15.1,10.6-9.8,2.3-18.8.2-26-7.2-4.7-4.9-6.9-10.9-6.9-17.6,0-9.5,3-16.1,11.1-21.7,4.8-3.3,10.2-4.6,16-4.4,8.1.3,14.8,3.6,19.9,10,.3.4.5.7.8,1.1l-11.6,7.6c-2.3-3.1-6-5.2-10.1-5.3-6.9,0-12.3,5.3-12.3,12.2,0,7.1,5.3,12.5,12.2,12.5,4.1,0,7.8-2,10.1-5.1l11.9,7.5ZM95,59.9c0,3.6,2.9,7.9,6.4,9.3,4.3,1.7,8.5,1.6,12.7-.3,1.6-.7,2.9-1.9,4-3.3.2-.2.3-.4.5-.7,3.4,2.2,6.7,4.4,10.1,6.7-1.8,2.6-3.8,4.8-6.3,6.6-3.1,2.2-6.6,3.3-10.3,3.8-4.8.6-9.6.3-14.2-1.5-9.3-3.6-14.8-10.4-16.3-20.2-1.3-8.7,1-16.5,7.3-22.8,4.9-4.9,10.9-7.1,17.8-7.1,15.4.1,26.2,13.6,24.4,28.7,0,.7-.4.7-1,.7-11.4,0-22.7,0-34.1,0h-1ZM117.2,51c-.4-5-5.1-8.9-10.8-8.9-5.7,0-10.6,3.9-11.1,8.9,7.3,0,14.5,0,21.8,0ZM215.6,84.5c-5.1,8.1-12.5,10.9-24.7,8.8,2.2-7.8,3.3-16.2,3-24.7,8.5-11.1,11.2-26.3,12.7-35l-13.3-2.4c-1,5.7-2.2,10.9-3.6,15.4-3.8-9.5-13.2-16.3-24.1-16.3s-25.9,11.6-25.9,25.9c0,5.4,1.6,10.4,4.4,14.5,4.7,6.9,12.5,11.4,21.5,11.4,1.1,0,2.2,0,3.3-.2,4.1-.3,7.8-1.2,11.1-2.6-.5,3.7-1.2,7.2-2.2,10.6-22-4.6-37.6,4.3-45.2,14.8-6.8,9.5-7.7,21.1-2.1,28.8,3.7,5.1,9,7.7,15,7.7s8.9-1.3,13.6-3.9c10.2-5.7,20.3-17.1,26.9-31.3,10.6,2.2,29.5,3.6,40.9-14.5l-11.4-7.2ZM165.7,69c-6.9,0-12.6-5.6-12.6-12.6,0-6.9,5.6-12.6,12.6-12.6s12.6,5.6,12.6,12.6-5.6,12.6-12.6,12.6ZM152.5,125.8c-5.3,3-9.1,3-11.2,0-2.1-2.9-1.2-8.3,2.1-13,5.5-7.6,14-10.3,22.7-10.3s4.2.2,6.3.5c-5.7,10.8-13.4,19-20,22.8ZM238.2,106.4v-14.9s7.1,0,7.1,0c2.4,0,4.6,1.8,4.6,4.3,0,.9-.3,1.8-.9,2.5l-.2.2h.2c1.1.9,1.8,2.1,1.8,3.5,0,2.7-2.2,4.4-4.7,4.4h-7.9ZM240.8,97.7h4.5c1,0,2-.7,2-1.9,0-1.1-1.1-1.8-2-1.8h-4.5v3.6ZM240.8,103.8h5.3c1,0,2.1-.6,2.1-1.8,0-1.2-1.1-1.9-2.1-1.9h-5.3v3.7ZM254.8,101.6c.4,1.6,1.4,2.8,3.2,2.8s2.1-.4,2.8-1.2l1.9,1.5c-1.1,1.3-3,2-4.7,2-3.4,0-5.8-2.7-5.8-6.1,0-3.4,2.3-5.9,5.7-5.9s5.5,2.7,5.5,5.9v1h-8.6ZM260.7,99.4c-.4-1.4-1.3-2.4-2.9-2.4s-2.6.9-3,2.4h5.9ZM267.3,108.1c.9.7,2.1,1.1,3.3,1.1,2.9,0,3.6-2.6,3.6-4.9v-.8c-.9,1.7-2.1,3.2-4.3,3.2s-4.4-2-4.4-4.8v-6.9s2.4,0,2.4,0v6.9c0,1.1.7,2.4,2.1,2.4,3.7,0,4.3-6.8,4.3-9.4h2.4v10.2c0,3.8-2.5,6.3-6.3,6.3s-3.2-.4-4.4-1.4l1.4-2ZM278,100.7c0-3.5,2.8-6.1,6.1-6.1s6,2.7,6,6.1c0,3.4-2.7,6.1-6.1,6.1s-6-2.7-6-6.1ZM287.6,100.7c0-2-1.5-3.7-3.6-3.7s-3.6,1.6-3.6,3.7c0,2,1.4,3.7,3.5,3.7s3.6-1.7,3.6-3.7ZM292.1,106.4v-11.4s2.4,0,2.4,0v3.4s.4-.9.4-.9c.8-1.7,2.2-2.8,4.1-2.8s4.2,2.2,4.2,4.8v6.9s-2.4,0-2.4,0v-6.9c0-1.1-.4-2.4-1.9-2.4s-1.5.3-2,.8c-2.3,1.9-2.5,5.8-2.5,8.4h-2.4ZM315.5,106.4v-2.3c-1,1.6-2.5,2.5-4.5,2.5-3.3,0-5.7-2.5-5.7-5.8,0-3.5,2.3-6.2,5.8-6.2s3.5,1.1,4.4,2.6v-7.6s2.4,0,2.4,0v5.8c0,1.7-.1,3.5-.7,5.2.6,1.6.7,3.8.7,5.7h-2.5ZM311.1,97.1c-2.2,0-3.4,1.8-3.4,3.8,0,1.9,1.4,3.5,3.3,3.5s3.4-1.8,4-3.6c-.6-1.5-1.9-3.7-3.9-3.7ZM238.2,129.1v-14.9s2.4,0,2.4,0v7.8h1.4c2.1,0,4.2-2.2,4.4-4.3h2.4c-.1,2.1-1.5,3.9-3.1,5.1l-.3.2.3.2c2.2,1.3,3.6,3.4,3.6,6h-2.5c-.1-2.7-2.2-4.8-4.9-4.8h-1.3v4.7s-2.4,0-2.4,0ZM251.2,129.1v-11.4s2.4,0,2.4,0v3.4s.4-.9.4-.9c.8-1.7,2.2-2.8,4.1-2.8s4.2,2.2,4.2,4.8v6.9s-2.4,0-2.4,0v-6.9c0-1.1-.4-2.4-1.9-2.4s-1.5.3-2,.8c-2.3,1.9-2.5,5.8-2.5,8.4h-2.4ZM264.2,123.5c0-3.5,2.8-6.1,6.1-6.1s6,2.7,6,6.1c0,3.4-2.7,6.1-6.1,6.1s-6-2.7-6-6.1ZM273.9,123.5c0-2-1.5-3.7-3.6-3.7s-3.6,1.6-3.6,3.7c0,2,1.4,3.7,3.5,3.7s3.6-1.7,3.6-3.7ZM280.8,129.1l-3.6-11.5h2.6l2.7,9.1,2.7-9.1h2.5l2.7,9.1,2.7-9.1h2.6s-3.6,11.4-3.6,11.4h-3.1l-2.6-8.3-2.6,8.3h-3.1ZM297,129.1v-16.6s2.4,0,2.4,0v16.6s-2.4,0-2.4,0ZM304,124.3c.4,1.6,1.4,2.8,3.2,2.8s2.1-.4,2.8-1.2l1.9,1.5c-1.1,1.3-3,2-4.7,2-3.4,0-5.8-2.7-5.8-6.1,0-3.4,2.3-5.9,5.7-5.9s5.5,2.7,5.5,5.9v1h-8.6ZM309.9,122.1c-.4-1.4-1.3-2.4-2.9-2.4s-2.6.9-3,2.4h5.9ZM324.6,129.1v-2.3c-1,1.6-2.5,2.5-4.5,2.5-3.3,0-5.7-2.5-5.7-5.8,0-3.5,2.3-6.2,5.8-6.2s3.5,1.1,4.4,2.6v-7.6s2.4,0,2.4,0v5.8c0,1.7-.1,3.5-.7,5.2.6,1.6.7,3.8.7,5.7h-2.5ZM320.1,119.8c-2.2,0-3.4,1.8-3.4,3.8,0,1.9,1.4,3.5,3.3,3.5s3.4-1.8,4-3.6c-.6-1.5-1.9-3.7-3.9-3.7ZM331.3,131.4c1,.5,2.1.9,3.5.9,3.3,0,4.7-2.1,4.4-5.1-1,1.4-2.6,2.3-4.5,2.3-3.3,0-5.7-2.5-5.7-5.9,0-3.4,2.3-6.1,5.6-6.1s3.7,1.1,4.6,2.6v-2.4h2.4c0,1.9,0,3.9-.7,5.8.5,1.4.8,3.1.7,5.2-.3,3.7-2.6,5.8-6.8,5.8s-3.2-.3-4.6-1l1.1-2.1ZM334.7,119.8c-2.2,0-3.4,1.8-3.4,3.6,0,2.1,1.4,3.7,3.3,3.7s3.4-1.8,4-3.6c-.5-1.5-1.9-3.7-3.9-3.7ZM345.9,124.3c.4,1.6,1.4,2.8,3.2,2.8s2.1-.4,2.8-1.2l1.9,1.5c-1.1,1.3-3,2-4.7,2-3.4,0-5.8-2.7-5.8-6.1,0-3.4,2.3-5.9,5.7-5.9s5.5,2.7,5.5,5.9v1h-8.6ZM351.8,122.1c-.4-1.4-1.3-2.4-2.9-2.4s-2.6.9-3,2.4h5.9Z"/>
</svg>